<svg xmlns="http://www.w3.org/2000/svg" xmlns:xlink="http://www.w3.org/1999/xlink" width="232.755" height="232.755" viewBox="0 0 232.755 232.755">
  <defs>
    <clipPath id="clip-path">
      <rect id="Rectangle_1" data-name="Rectangle 1" width="232.755" height="232.755" fill="#ff6c02"/>
    </clipPath>
  </defs>
  <g id="Group_45" data-name="Group 45" opacity="0.2">
    <g id="Group_1" data-name="Group 1" clip-path="url(#clip-path)">
      <path id="Path_1" data-name="Path 1" d="M33.009,16.5A16.5,16.5,0,1,1,16.5,0a16.506,16.506,0,0,1,16.5,16.5" fill="#ff6c02"/>
      <path id="Path_2" data-name="Path 2" d="M33.009,36.5A16.5,16.5,0,1,1,16.5,20a16.506,16.506,0,0,1,16.5,16.5" transform="translate(0 46.019)" fill="#ff6c02"/>
      <path id="Path_3" data-name="Path 3" d="M53.009,16.5A16.5,16.5,0,1,1,36.5,0a16.506,16.506,0,0,1,16.5,16.5" transform="translate(46.019)" fill="#ff6c02"/>
      <path id="Path_4" data-name="Path 4" d="M73.009,16.5A16.5,16.5,0,1,1,56.5,0a16.506,16.506,0,0,1,16.5,16.5" transform="translate(92.037)" fill="#ff6c02"/>
      <path id="Path_5" data-name="Path 5" d="M93.009,16.5A16.5,16.5,0,1,1,76.5,0a16.506,16.506,0,0,1,16.5,16.5" transform="translate(138.056)" fill="#ff6c02"/>
      <path id="Path_6" data-name="Path 6" d="M53.009,36.5A16.5,16.5,0,1,1,36.5,20a16.506,16.506,0,0,1,16.5,16.5" transform="translate(46.019 46.019)" fill="#ff6c02"/>
      <path id="Path_7" data-name="Path 7" d="M73.009,36.5A16.5,16.5,0,1,1,56.5,20a16.506,16.506,0,0,1,16.5,16.5" transform="translate(92.037 46.019)" fill="#ff6c02"/>
      <path id="Path_8" data-name="Path 8" d="M93.009,36.5A16.5,16.5,0,1,1,76.5,20a16.506,16.506,0,0,1,16.5,16.5" transform="translate(138.056 46.019)" fill="#ff6c02"/>
      <path id="Path_9" data-name="Path 9" d="M33.009,56.5A16.5,16.5,0,1,1,16.5,40a16.506,16.506,0,0,1,16.5,16.5" transform="translate(0 92.037)" fill="#ff6c02"/>
      <path id="Path_10" data-name="Path 10" d="M53.009,56.5A16.5,16.5,0,1,1,36.5,40a16.506,16.506,0,0,1,16.5,16.5" transform="translate(46.019 92.037)" fill="#ff6c02"/>
      <path id="Path_11" data-name="Path 11" d="M73.009,56.5A16.5,16.5,0,1,1,56.5,40a16.506,16.506,0,0,1,16.5,16.5" transform="translate(92.037 92.037)" fill="#ff6c02"/>
      <path id="Path_12" data-name="Path 12" d="M93.009,56.5A16.5,16.5,0,1,1,76.5,40a16.506,16.506,0,0,1,16.5,16.5" transform="translate(138.056 92.037)" fill="#ff6c02"/>
      <path id="Path_13" data-name="Path 13" d="M33.009,76.5A16.5,16.5,0,1,1,16.5,60a16.506,16.506,0,0,1,16.5,16.5" transform="translate(0 138.056)" fill="#ff6c02"/>
      <path id="Path_14" data-name="Path 14" d="M53.009,76.5A16.5,16.5,0,1,1,36.5,60a16.506,16.506,0,0,1,16.5,16.5" transform="translate(46.019 138.056)" fill="#ff6c02"/>
      <path id="Path_15" data-name="Path 15" d="M73.009,76.5A16.5,16.5,0,1,1,56.5,60a16.506,16.506,0,0,1,16.5,16.5" transform="translate(92.037 138.056)" fill="#ff6c02"/>
      <path id="Path_16" data-name="Path 16" d="M93.009,76.5A16.5,16.5,0,1,1,76.5,60a16.506,16.506,0,0,1,16.5,16.5" transform="translate(138.056 138.056)" fill="#ff6c02"/>
    </g>
  </g>
</svg>
