<svg xmlns="http://www.w3.org/2000/svg" width="236" height="236" viewBox="0 0 236 236">
  <g id="Group_266" data-name="Group 266" transform="translate(-383.829 -246.829)">
    <g id="Rectangle_77" data-name="Rectangle 77" transform="translate(383.829 246.829)" fill="#f5faff" stroke="#d4e4f2" stroke-width="1">
      <rect width="236" height="236" rx="118" stroke="none"/>
      <rect x="0.5" y="0.5" width="235" height="235" rx="117.5" fill="none"/>
    </g>
    <g id="Icon_ionic-ios-image" data-name="Icon ionic-ios-image" transform="translate(478.067 341.853)">
      <path id="Path_37" data-name="Path 37" d="M8.143,28.568H29.208a.615.615,0,0,0,.5-.972L19.167,10.65a.609.609,0,0,0-1.005,0L7.635,27.6A.619.619,0,0,0,8.143,28.568Z" transform="translate(-1.007 0.628)" fill="#d4e4f2"/>
      <path id="Path_38" data-name="Path 38" d="M21.6,19.519l3.866,6.153a.6.6,0,0,0,.5.265h5.877a.615.615,0,0,0,.5-.972l-6.8-9.688a.609.609,0,0,0-1.005,0l-2.938,3.546A.637.637,0,0,0,21.6,19.519Z" transform="translate(6.973 3.27)" fill="#d4e4f2"/>
      <path id="Path_39" data-name="Path 39" d="M25.925,14.048a3.093,3.093,0,1,0-3.391-3.391A3.1,3.1,0,0,0,25.925,14.048Z" transform="translate(7.557 -0.803)" fill="#d4e4f2"/>
      <path id="Path_40" data-name="Path 40" d="M45.794,3.375H6.91A3.531,3.531,0,0,0,3.375,6.91V45.794A3.531,3.531,0,0,0,6.91,49.328H45.794a3.531,3.531,0,0,0,3.535-3.535V6.91A3.531,3.531,0,0,0,45.794,3.375Zm-.3,30.93a.886.886,0,0,1-.884.884H8.092a.886.886,0,0,1-.884-.884V8.092a.886.886,0,0,1,.884-.884H44.623a.886.886,0,0,1,.884.884V34.305Z" transform="translate(-3.375 -3.375)" fill="#d4e4f2"/>
    </g>
  </g>
</svg>
