<svg xmlns="http://www.w3.org/2000/svg" width="126.129" height="21" viewBox="0 0 126.129 21">
  <g id="logo-primary" transform="translate(0.5 0.5)">
    <path id="Path_19991" data-name="Path 19991" d="M-1650.454-2116.788a.787.787,0,0,1,.787-.786.787.787,0,0,1,.788.786.787.787,0,0,1-.788.788A.787.787,0,0,1-1650.454-2116.788Zm-7.026,0a.788.788,0,0,1,.788-.786.786.786,0,0,1,.787.786.786.786,0,0,1-.787.788A.788.788,0,0,1-1657.48-2116.788Zm8.652-2.669a.918.918,0,0,1,.918-.918.918.918,0,0,1,.918.918.918.918,0,0,1-.918.919A.918.918,0,0,1-1648.829-2119.457Zm-10.539,0a.917.917,0,0,1,.918-.918.918.918,0,0,1,.919.918.919.919,0,0,1-.919.919A.918.918,0,0,1-1659.367-2119.457Zm7.288,0a.656.656,0,0,1,.656-.656.655.655,0,0,1,.656.656.655.655,0,0,1-.656.656A.656.656,0,0,1-1652.08-2119.457Zm-3.512,0a.655.655,0,0,1,.655-.656.655.655,0,0,1,.656.656.655.655,0,0,1-.656.656A.655.655,0,0,1-1655.592-2119.457Zm1-2.669a1.416,1.416,0,0,1,1.416-1.417,1.417,1.417,0,0,1,1.417,1.417,1.417,1.417,0,0,1-1.417,1.416A1.416,1.416,0,0,1-1654.6-2122.126Zm7.262,0a1.18,1.18,0,0,1,1.18-1.18,1.18,1.18,0,0,1,1.18,1.18,1.181,1.181,0,0,1-1.18,1.18A1.181,1.181,0,0,1-1647.334-2122.126Zm-14.052,0a1.18,1.18,0,0,1,1.18-1.18,1.181,1.181,0,0,1,1.181,1.18,1.181,1.181,0,0,1-1.181,1.18A1.181,1.181,0,0,1-1661.387-2122.126Zm10.8,0a.919.919,0,0,1,.918-.919.919.919,0,0,1,.919.919.918.918,0,0,1-.919.918A.918.918,0,0,1-1650.585-2122.126Zm-7.026,0a.919.919,0,0,1,.919-.919.918.918,0,0,1,.918.919.917.917,0,0,1-.918.918A.918.918,0,0,1-1657.612-2122.126Zm5.27-2.671a.918.918,0,0,1,.919-.918.917.917,0,0,1,.918.918.918.918,0,0,1-.918.919A.919.919,0,0,1-1652.342-2124.8Zm-3.513,0a.918.918,0,0,1,.918-.918.918.918,0,0,1,.919.918.919.919,0,0,1-.919.919A.919.919,0,0,1-1655.855-2124.8Zm10.67,0a.787.787,0,0,1,.787-.787.787.787,0,0,1,.787.787.787.787,0,0,1-.787.788A.787.787,0,0,1-1645.185-2124.8Zm-17.565,0a.788.788,0,0,1,.788-.787.787.787,0,0,1,.787.787.787.787,0,0,1-.787.788A.788.788,0,0,1-1662.75-2124.8Zm14.183,0a.656.656,0,0,1,.656-.655.656.656,0,0,1,.656.655.656.656,0,0,1-.656.656A.656.656,0,0,1-1648.567-2124.8Zm-10.539,0a.656.656,0,0,1,.656-.655.656.656,0,0,1,.656.655.656.656,0,0,1-.656.656A.656.656,0,0,1-1659.106-2124.8Zm8.258-2.67a1.181,1.181,0,0,1,1.181-1.18,1.181,1.181,0,0,1,1.18,1.18,1.181,1.181,0,0,1-1.18,1.181A1.182,1.182,0,0,1-1650.848-2127.467Zm-7.026,0a1.181,1.181,0,0,1,1.181-1.18,1.181,1.181,0,0,1,1.18,1.18,1.181,1.181,0,0,1-1.18,1.181A1.182,1.182,0,0,1-1657.874-2127.467Zm10.8,0a.918.918,0,0,1,.919-.918.918.918,0,0,1,.918.918.919.919,0,0,1-.918.919A.919.919,0,0,1-1647.073-2127.467Zm-7.025,0a.918.918,0,0,1,.918-.918.918.918,0,0,1,.919.918.919.919,0,0,1-.919.919A.919.919,0,0,1-1654.1-2127.467Zm-7.026,0a.918.918,0,0,1,.918-.918.918.918,0,0,1,.919.918.919.919,0,0,1-.919.919A.919.919,0,0,1-1661.124-2127.467Zm17.826,0a.656.656,0,0,1,.656-.655.655.655,0,0,1,.655.655.656.656,0,0,1-.655.656A.657.657,0,0,1-1643.3-2127.467Zm-21.077,0a.655.655,0,0,1,.656-.655.656.656,0,0,1,.656.655.657.657,0,0,1-.656.656A.656.656,0,0,1-1664.375-2127.467Zm15.546-2.669a.918.918,0,0,1,.918-.919.918.918,0,0,1,.918.919.918.918,0,0,1-.918.918A.918.918,0,0,1-1648.829-2130.135Zm-10.539,0a.918.918,0,0,1,.918-.919.919.919,0,0,1,.919.919.919.919,0,0,1-.919.918A.918.918,0,0,1-1659.367-2130.135Zm14.183,0a.787.787,0,0,1,.787-.788.787.787,0,0,1,.787.788.787.787,0,0,1-.787.787A.787.787,0,0,1-1645.185-2130.135Zm-7.026,0a.787.787,0,0,1,.788-.788.787.787,0,0,1,.787.788.787.787,0,0,1-.787.787A.787.787,0,0,1-1652.211-2130.135Zm-3.512,0a.787.787,0,0,1,.787-.788.787.787,0,0,1,.788.788.787.787,0,0,1-.788.787A.787.787,0,0,1-1655.724-2130.135Zm-7.026,0a.788.788,0,0,1,.788-.788.787.787,0,0,1,.787.788.787.787,0,0,1-.787.787A.788.788,0,0,1-1662.75-2130.135Zm21.34,0a.525.525,0,0,1,.525-.524.525.525,0,0,1,.524.524.524.524,0,0,1-.524.525A.525.525,0,0,1-1641.41-2130.136Zm-24.59,0a.525.525,0,0,1,.525-.524.525.525,0,0,1,.524.524.525.525,0,0,1-.524.525A.525.525,0,0,1-1666-2130.136Zm19.058-2.67a.788.788,0,0,1,.787-.788.788.788,0,0,1,.788.788.788.788,0,0,1-.788.788A.788.788,0,0,1-1646.942-2132.806Zm-7.025,0a.788.788,0,0,1,.787-.788.788.788,0,0,1,.787.788.788.788,0,0,1-.787.788A.788.788,0,0,1-1653.967-2132.806Zm-7.026,0a.788.788,0,0,1,.787-.788.788.788,0,0,1,.787.788.788.788,0,0,1-.787.788A.788.788,0,0,1-1660.993-2132.806Zm17.7,0a.656.656,0,0,1,.656-.655.655.655,0,0,1,.655.655.655.655,0,0,1-.655.656A.656.656,0,0,1-1643.3-2132.806Zm-21.077,0a.655.655,0,0,1,.656-.655.656.656,0,0,1,.656.655.656.656,0,0,1-.656.656A.655.655,0,0,1-1664.375-2132.806Zm19.452-2.67a.524.524,0,0,1,.525-.524.524.524,0,0,1,.524.524.525.525,0,0,1-.524.525A.525.525,0,0,1-1644.922-2135.476Zm-17.565,0a.524.524,0,0,1,.525-.524.524.524,0,0,1,.524.524.525.525,0,0,1-.524.525A.525.525,0,0,1-1662.487-2135.476Z" transform="translate(1666 2136)" fill="#ff6c02" stroke="rgba(0,0,0,0)" stroke-width="1"/>
    <path id="Union_8" data-name="Union 8" d="M-1619.808-2120.335v-.475c1.091-.105,1.243-.211,1.243-1.373v-7.956c0-1.144-.068-1.178-1.124-1.32v-.423a12.493,12.493,0,0,0,2.471-.757v1.39l1.568-.95a1.859,1.859,0,0,1,.835-.264,3.1,3.1,0,0,1,3.015,3.327,4.93,4.93,0,0,1-4.242,4.788,2.808,2.808,0,0,1-1.175-.317v2.306c0,1.337.119,1.426,1.449,1.549v.475Zm2.59-10.332v4.77a2.321,2.321,0,0,0,1.6.687c1.431,0,2.386-1.267,2.386-3.257,0-1.882-1.039-2.939-2.283-2.939A3.287,3.287,0,0,0-1617.218-2130.667Zm38,5.721a8.629,8.629,0,0,1-.272-2.077l.443-.088c.306,1.161,1.073,2.182,2.1,2.182a1.208,1.208,0,0,0,1.21-1.232c0-.774-.494-1.2-1.346-1.6-1.022-.492-2.13-1.074-2.13-2.429a2.376,2.376,0,0,1,2.59-2.27,3.843,3.843,0,0,1,1.516.3,13.548,13.548,0,0,1,.375,1.883l-.443.106c-.324-1.039-.92-1.743-1.755-1.743a1.133,1.133,0,0,0-1.107,1.215c0,.791.681,1.2,1.448,1.531,1.277.546,2.147,1.18,2.147,2.395a2.582,2.582,0,0,1-2.811,2.428A3.35,3.35,0,0,1-1579.221-2124.946Zm-7.583-3.151a4.62,4.62,0,0,1,1.125-3.08,3.421,3.421,0,0,1,2.5-1.284,2.684,2.684,0,0,1,2.556,2.675c0,.351-.086.493-.393.563-.289.052-2.418.229-4.446.3.017,2.4,1.345,3.38,2.538,3.38a2.741,2.741,0,0,0,1.942-.88l.273.369a3.839,3.839,0,0,1-2.776,1.707C-1585.577-2124.348-1586.8-2126.107-1586.8-2128.1Zm1.431-1.549c.955,0,1.892-.017,2.88-.053.306,0,.409-.106.409-.352a1.6,1.6,0,0,0-1.5-1.76C-1584.367-2131.811-1585.117-2131.072-1585.373-2129.646Zm-25.013,1.549a4.619,4.619,0,0,1,1.125-3.08,3.419,3.419,0,0,1,2.5-1.284,2.684,2.684,0,0,1,2.556,2.675c0,.351-.086.493-.393.563-.289.052-2.418.229-4.446.3.017,2.4,1.345,3.38,2.538,3.38a2.742,2.742,0,0,0,1.942-.88l.273.369a3.84,3.84,0,0,1-2.776,1.707C-1609.158-2124.348-1610.385-2126.107-1610.385-2128.1Zm1.431-1.549c.955,0,1.892-.017,2.88-.053.306,0,.408-.106.408-.352a1.6,1.6,0,0,0-1.5-1.76C-1607.948-2131.811-1608.7-2131.072-1608.954-2129.646Zm-19.015,1.407a3.954,3.954,0,0,1,3.73-4.224,3.763,3.763,0,0,1,3.7,3.926,3.861,3.861,0,0,1-3.7,4.189A3.756,3.756,0,0,1-1627.969-2128.239Zm1.584-.562c0,2.217.937,3.871,2.334,3.871,1.057,0,1.925-.809,1.925-3.221,0-2.059-.8-3.732-2.282-3.732C-1625.465-2131.882-1626.385-2130.79-1626.385-2128.8Zm-24.365.7a4.619,4.619,0,0,1,1.124-3.08,3.421,3.421,0,0,1,2.5-1.284,2.684,2.684,0,0,1,2.555,2.675c0,.351-.086.493-.392.563-.289.052-2.419.229-4.447.3.017,2.4,1.345,3.38,2.539,3.38a2.739,2.739,0,0,0,1.941-.88l.273.369a3.837,3.837,0,0,1-2.777,1.707C-1649.524-2124.348-1650.75-2126.107-1650.75-2128.1Zm1.431-1.549c.954,0,1.891-.017,2.879-.053.307,0,.409-.106.409-.352a1.6,1.6,0,0,0-1.5-1.76C-1648.314-2131.811-1649.064-2131.072-1649.319-2129.646Zm53.57,3.2v-5.123h-1.175l-.068-.176.46-.51h.783v-1.285l1.107-1.162.238.036v2.411h1.926a.511.511,0,0,1-.1.686h-1.824v4.523c0,1.426.563,1.69.989,1.69a2.4,2.4,0,0,0,1.056-.3l.153.458-1.158.616a1.692,1.692,0,0,1-.715.228C-1595.152-2124.349-1595.749-2125.052-1595.749-2126.442Zm-59.416,2.06c-.937-2.816-2.112-6.213-2.982-8.767h-.034c-.954,3.1-1.907,5.933-2.777,8.767h-.528c-.9-3.167-1.857-6.266-2.794-9.4-.425-1.443-.681-1.584-1.721-1.725V-2136h4.14v.493c-1.243.158-1.278.3-1.023,1.2.664,2.376,1.33,4.752,2.079,7.252h.034c.9-2.993,1.891-5.9,2.76-8.766h.494c.954,2.887,1.942,5.738,2.981,8.766h.034c.716-2.341,1.653-5.792,1.925-7.041.238-1.056.17-1.25-1.176-1.408V-2136h3.766v.493c-1.175.158-1.33.3-1.841,1.759-.392,1.127-1.413,4.454-2.81,9.365Zm11.707-.176v-.493c1.363-.106,1.5-.246,1.5-1.707v-7.04c0-1.55-.136-1.62-1.4-1.708V-2136h4.209a4.6,4.6,0,0,1,2.861.739,2.965,2.965,0,0,1,1.107,2.481,3.565,3.565,0,0,1-3.322,3.609,5.554,5.554,0,0,1-.767,0l-1.26-.334v2.763c0,1.5.153,1.584,1.686,1.69v.493Zm3.117-10.667c-.136.124-.186.334-.186.828v4.313a3.6,3.6,0,0,0,1.243.21c1.107,0,2.47-.616,2.47-2.852a2.431,2.431,0,0,0-2.573-2.71A1.559,1.559,0,0,0-1640.341-2135.226Zm48.885,10.666v-.458c1.074-.105,1.193-.211,1.193-1.407v-3.626c0-1.091-.051-1.162-1.074-1.338v-.422a10.476,10.476,0,0,0,2.419-.687v6.074c0,1.2.119,1.3,1.21,1.407v.458Zm-11.756,0v-.458c1.055-.105,1.175-.211,1.175-1.373v-3.643c0-1.161-.086-1.233-1.056-1.373v-.388a9.4,9.4,0,0,0,2.4-.722v1.919h.034c.511-.88,1.243-1.866,2.062-1.866a.959.959,0,0,1,.987.88.992.992,0,0,1-.544.864.387.387,0,0,1-.461-.036.906.906,0,0,0-.715-.369c-.443,0-.989.528-1.364,1.514v3.22c0,1.161.086,1.267,1.4,1.373v.458Zm-30.926,0v-.458c1.056-.105,1.175-.211,1.175-1.373v-3.643c0-1.161-.086-1.233-1.057-1.373v-.388a9.4,9.4,0,0,0,2.4-.722v1.919h.035c.511-.88,1.243-1.866,2.062-1.866a.959.959,0,0,1,.987.88.992.992,0,0,1-.545.864.385.385,0,0,1-.46-.036.906.906,0,0,0-.716-.369c-.443,0-.988.528-1.363,1.514v3.22c0,1.161.086,1.267,1.4,1.373v.458Zm43.585-10.332a.891.891,0,0,1,.869-.916.868.868,0,0,1,.851.916.888.888,0,0,1-.869.9A.909.909,0,0,1-1590.552-2134.891Z" transform="translate(1699.58 2139.822)" fill="#2c3a5c" stroke="rgba(0,0,0,0)" stroke-width="1"/>
  </g>
</svg>
