<svg id="primary-logo" xmlns="http://www.w3.org/2000/svg" xmlns:xlink="http://www.w3.org/1999/xlink" width="123.922" height="20" viewBox="0 0 123.922 20">
  <defs>
    <clipPath id="clip-path">
      <rect id="Rectangle_70" data-name="Rectangle 70" width="20" height="20" fill="#2c3a5c"/>
    </clipPath>
  </defs>
  <g id="Group_1" data-name="Group 1" clip-path="url(#clip-path)">
    <path id="Path_1" data-name="Path 1" d="M2.836,1.418A1.418,1.418,0,1,1,1.418,0,1.418,1.418,0,0,1,2.836,1.418" fill="#2c3a5c"/>
    <path id="Path_2" data-name="Path 2" d="M2.836,21.418A1.418,1.418,0,1,1,1.418,20a1.418,1.418,0,0,1,1.418,1.418" transform="translate(0 -14.327)" fill="#2c3a5c"/>
    <path id="Path_3" data-name="Path 3" d="M22.836,1.418A1.418,1.418,0,1,1,21.418,0a1.418,1.418,0,0,1,1.418,1.418" transform="translate(-14.327)" fill="#2c3a5c"/>
    <path id="Path_4" data-name="Path 4" d="M42.836,1.418A1.418,1.418,0,1,1,41.418,0a1.418,1.418,0,0,1,1.418,1.418" transform="translate(-28.654)" fill="#2c3a5c"/>
    <path id="Path_5" data-name="Path 5" d="M62.836,1.418A1.418,1.418,0,1,1,61.418,0a1.418,1.418,0,0,1,1.418,1.418" transform="translate(-42.982)" fill="#2c3a5c"/>
    <path id="Path_6" data-name="Path 6" d="M22.836,21.418A1.418,1.418,0,1,1,21.418,20a1.418,1.418,0,0,1,1.418,1.418" transform="translate(-14.327 -14.327)" fill="#2c3a5c"/>
    <path id="Path_7" data-name="Path 7" d="M42.836,21.418A1.418,1.418,0,1,1,41.418,20a1.418,1.418,0,0,1,1.418,1.418" transform="translate(-28.654 -14.327)" fill="#2c3a5c"/>
    <path id="Path_8" data-name="Path 8" d="M62.836,21.418A1.418,1.418,0,1,1,61.418,20a1.418,1.418,0,0,1,1.418,1.418" transform="translate(-42.982 -14.327)" fill="#2c3a5c"/>
    <path id="Path_9" data-name="Path 9" d="M2.836,41.418A1.418,1.418,0,1,1,1.418,40a1.418,1.418,0,0,1,1.418,1.418" transform="translate(0 -28.654)" fill="#2c3a5c"/>
    <path id="Path_10" data-name="Path 10" d="M22.836,41.418A1.418,1.418,0,1,1,21.418,40a1.418,1.418,0,0,1,1.418,1.418" transform="translate(-14.327 -28.654)" fill="#2c3a5c"/>
    <path id="Path_11" data-name="Path 11" d="M42.836,41.418A1.418,1.418,0,1,1,41.418,40a1.418,1.418,0,0,1,1.418,1.418" transform="translate(-28.654 -28.654)" fill="#2c3a5c"/>
    <path id="Path_12" data-name="Path 12" d="M62.836,41.418A1.418,1.418,0,1,1,61.418,40a1.418,1.418,0,0,1,1.418,1.418" transform="translate(-42.982 -28.654)" fill="#2c3a5c"/>
    <path id="Path_13" data-name="Path 13" d="M2.836,61.418A1.418,1.418,0,1,1,1.418,60a1.418,1.418,0,0,1,1.418,1.418" transform="translate(0 -42.982)" fill="#2c3a5c"/>
    <path id="Path_14" data-name="Path 14" d="M22.836,61.418A1.418,1.418,0,1,1,21.418,60a1.418,1.418,0,0,1,1.418,1.418" transform="translate(-14.327 -42.982)" fill="#2c3a5c"/>
    <path id="Path_15" data-name="Path 15" d="M42.836,61.418A1.418,1.418,0,1,1,41.418,60a1.418,1.418,0,0,1,1.418,1.418" transform="translate(-28.654 -42.982)" fill="#2c3a5c"/>
    <path id="Path_16" data-name="Path 16" d="M62.836,61.418A1.418,1.418,0,1,1,61.418,60a1.418,1.418,0,0,1,1.418,1.418" transform="translate(-42.982 -42.982)" fill="#2c3a5c"/>
  </g>
  <path id="Path_17" data-name="Path 17" d="M17.208-11.7H13.23v.5c1.422.162,1.494.36,1.242,1.44-.288,1.278-1.278,4.806-2.034,7.2H12.4c-1.1-3.1-2.142-6.012-3.15-8.964H8.73c-.918,2.934-1.962,5.9-2.916,8.964H5.778c-.792-2.556-1.494-4.986-2.2-7.416-.27-.918-.234-1.062,1.08-1.224v-.5H.288v.5c1.1.144,1.368.288,1.818,1.764C3.1-6.228,4.1-3.06,5.058.18h.558c.918-2.9,1.926-5.8,2.934-8.964h.036C9.5-6.174,10.746-2.7,11.736.18h.558C13.77-4.842,14.85-8.244,15.264-9.4c.54-1.494.7-1.638,1.944-1.8Zm5.346,9.792a2.941,2.941,0,0,1-2.052.9c-1.26,0-2.664-1.008-2.682-3.456,2.142-.072,4.392-.252,4.7-.306.324-.072.414-.216.414-.576a2.787,2.787,0,0,0-2.7-2.736,3.655,3.655,0,0,0-2.646,1.314A4.635,4.635,0,0,0,16.4-3.618,3.559,3.559,0,0,0,19.908.216,4.087,4.087,0,0,0,22.842-1.53ZM19.8-7.416a1.651,1.651,0,0,1,1.584,1.8c0,.252-.108.36-.432.36-1.044.036-2.034.054-3.042.054C18.18-6.66,18.972-7.416,19.8-7.416ZM31.284-.7,31.1-1.17a1.366,1.366,0,0,1-.648.2c-.306,0-.63-.27-.63-1.08V-5.4a2.618,2.618,0,0,0-.81-2.2,2.347,2.347,0,0,0-1.476-.486,8.038,8.038,0,0,0-2.7,1.26c-.342.252-.576.45-.576.72a.879.879,0,0,0,.792.774.5.5,0,0,0,.522-.414,2.613,2.613,0,0,1,.54-1.188,1.015,1.015,0,0,1,.81-.36c.9,0,1.512.738,1.512,2.034v.324a12.9,12.9,0,0,1-2.79,1.17A1.8,1.8,0,0,0,24.192-1.98a2.173,2.173,0,0,0,2.16,2.2A5.683,5.683,0,0,0,28.476-.936a1.87,1.87,0,0,0,.432.81,1.468,1.468,0,0,0,.846.342Zm-2.844-.81A2.575,2.575,0,0,1,27-.864,1.318,1.318,0,0,1,25.722-2.25c0-.648.4-.99,1.1-1.314.378-.18,1.242-.558,1.62-.756ZM35.766,0V-.468c-1.152-.108-1.3-.216-1.3-1.4V-12.816a13.849,13.849,0,0,1-2.664.63v.432c1.134.09,1.242.144,1.242,1.368v8.514c0,1.188-.162,1.3-1.3,1.4V0Zm5.418-.648-.162-.468a2.574,2.574,0,0,1-1.116.306c-.45,0-1.044-.27-1.044-1.728V-7.164h1.926a.512.512,0,0,0,.108-.7H38.862v-2.466l-.252-.036L37.44-9.18v1.314h-.828l-.486.522.072.18H37.44v5.238C37.44-.5,38.07.216,39.2.216a1.826,1.826,0,0,0,.756-.234ZM50.652,0V-.468c-1.062-.09-1.188-.2-1.188-1.386V-5c0-2.16-1.026-3.078-2.484-3.078a3.937,3.937,0,0,0-2.574,1.314v-6.048a19.712,19.712,0,0,1-2.646.63v.414c1.188.108,1.224.2,1.224,1.332v8.586c0,1.188-.162,1.3-1.242,1.386V0h3.816V-.468C44.5-.576,44.406-.7,44.406-1.854V-6.138a2.539,2.539,0,0,1,1.872-.918c1.206,0,1.764.738,1.764,2.214v2.988c0,1.17-.144,1.278-1.188,1.386V0Zm1.206-11.7v.5c1.332.09,1.476.162,1.476,1.746v7.2c0,1.494-.144,1.638-1.584,1.746V0h4.878V-.5c-1.62-.108-1.782-.2-1.782-1.728V-5.058l1.332.342a6.055,6.055,0,0,0,.81,0,3.7,3.7,0,0,0,3.51-3.69,3,3,0,0,0-1.17-2.538A4.991,4.991,0,0,0,56.3-11.7Zm2.988,1.638c0-.5.054-.72.2-.846a1.684,1.684,0,0,1,1.008-.216A2.527,2.527,0,0,1,58.77-8.352c0,2.286-1.44,2.916-2.61,2.916a3.9,3.9,0,0,1-1.314-.216Zm8.586.414a.922.922,0,0,0,.918-.918.9.9,0,0,0-.9-.936.926.926,0,0,0-.918.936A.943.943,0,0,0,63.432-9.648ZM65.538,0V-.468c-1.152-.108-1.278-.216-1.278-1.44v-6.21a11.351,11.351,0,0,1-2.556.7v.432c1.08.18,1.134.252,1.134,1.368v3.708c0,1.224-.126,1.332-1.26,1.44V0Zm8.838,0V-.468c-1.1-.144-1.314-.306-1.98-1.332L70.632-4.464c.594-.882,1.044-1.53,1.4-1.98a2.263,2.263,0,0,1,1.98-.972v-.45H70.74v.45c.774.09.9.18.576.756a18.907,18.907,0,0,1-1.044,1.674L69.21-6.642c-.324-.5-.27-.666.5-.774v-.45h-3.6v.45a1.848,1.848,0,0,1,1.764,1.152l1.566,2.448a26.156,26.156,0,0,1-1.512,2.16A2.329,2.329,0,0,1,65.9-.468V0h3.366V-.468c-.936-.144-.972-.306-.63-.918.342-.648.756-1.314,1.152-1.908l1.332,2.106c.306.486.162.63-.612.72V0ZM81-1.908a2.941,2.941,0,0,1-2.052.9c-1.26,0-2.664-1.008-2.682-3.456,2.142-.072,4.392-.252,4.7-.306.324-.072.414-.216.414-.576a2.787,2.787,0,0,0-2.7-2.736,3.655,3.655,0,0,0-2.646,1.314,4.635,4.635,0,0,0-1.188,3.15A3.559,3.559,0,0,0,78.354.216,4.087,4.087,0,0,0,81.288-1.53ZM78.246-7.416a1.651,1.651,0,0,1,1.584,1.8c0,.252-.108.36-.432.36-1.044.036-2.034.054-3.042.054C76.626-6.66,77.418-7.416,78.246-7.416ZM86.04,0V-.468c-1.152-.108-1.3-.216-1.3-1.4V-12.816a13.849,13.849,0,0,1-2.664.63v.432c1.134.09,1.242.144,1.242,1.368v8.514c0,1.188-.162,1.3-1.3,1.4V0Zm5.976-5.85a13.525,13.525,0,0,0-.4-1.926,4.188,4.188,0,0,0-1.6-.306A2.48,2.48,0,0,0,87.282-5.76c0,1.386,1.17,1.98,2.25,2.484.9.414,1.422.846,1.422,1.638a1.255,1.255,0,0,1-1.278,1.26c-1.08,0-1.89-1.044-2.214-2.232l-.468.09A8.487,8.487,0,0,0,87.282-.4a3.613,3.613,0,0,0,2.07.612c1.44,0,2.97-.846,2.97-2.484,0-1.242-.918-1.89-2.268-2.448-.81-.342-1.53-.756-1.53-1.566a1.174,1.174,0,0,1,1.17-1.242c.882,0,1.512.72,1.854,1.782Zm2.9,6.066A.983.983,0,0,0,95.922-.828a1,1,0,0,0-1.008-1.026A1,1,0,0,0,93.906-.828.983.983,0,0,0,94.914.216Z" transform="translate(28 15.816)" fill="#2c3a5c"/>
</svg>
