<svg xmlns="http://www.w3.org/2000/svg" width="25.5" height="25.5" viewBox="0 0 25.5 25.5">
  <g id="button-view" transform="translate(0.25 0.25)">
    <g id="Group_18" data-name="Group 18" transform="translate(25) rotate(90)">
      <rect id="Rectangle_6" data-name="Rectangle 6" width="25" height="25" rx="12.5" fill="#fff" stroke="#d4e4f2" stroke-width="0.5"/>
    </g>
    <g id="view" transform="translate(6.136 7.5)">
      <g id="Icon_feather-eye" data-name="Icon feather-eye">
        <path id="Path_83" data-name="Path 83" d="M6.364,4.5A5.417,5.417,0,0,1,9.1,5.264,8.118,8.118,0,0,1,11.059,6.9a11.066,11.066,0,0,1,1.612,2.354.579.579,0,0,1,0,.5A11.066,11.066,0,0,1,11.059,12.1,8.118,8.118,0,0,1,9.1,13.736a5.417,5.417,0,0,1-2.734.764,5.417,5.417,0,0,1-2.734-.764A8.118,8.118,0,0,1,1.668,12.1,11.066,11.066,0,0,1,.056,9.748a.579.579,0,0,1,0-.5A11.067,11.067,0,0,1,1.668,6.9,8.118,8.118,0,0,1,3.63,5.264,5.417,5.417,0,0,1,6.364,4.5Zm5.228,5a10.412,10.412,0,0,0-1.325-1.863A7.021,7.021,0,0,0,8.572,6.229a4.4,4.4,0,0,0-2.208-.618c-2.861,0-4.733,3-5.228,3.889a10.412,10.412,0,0,0,1.325,1.863,7.021,7.021,0,0,0,1.695,1.408,4.4,4.4,0,0,0,2.208.618C9.225,13.389,11.1,10.394,11.592,9.5Z" transform="translate(0 -4.5)" fill="#2c3a5c"/>
        <path id="Path_84" data-name="Path 84" d="M14.3,12A2.3,2.3,0,1,1,12,14.3,2.3,2.3,0,0,1,14.3,12Zm0,3.452A1.151,1.151,0,1,0,13.151,14.3,1.152,1.152,0,0,0,14.3,15.452Z" transform="translate(-7.938 -9.301)" fill="#2c3a5c"/>
      </g>
    </g>
  </g>
</svg>
