<?xml version="1.0" encoding="UTF-8"?>
<svg id="Layer_1" data-name="Layer 1" xmlns="http://www.w3.org/2000/svg" viewBox="0 0 25.64 20">
  <defs>
    <style>
      .cls-1 {
        fill: #ff6c02;
        stroke-width: 0px;
      }
    </style>
  </defs>
  <g id="logo-primary">
    <path id="Path_19991" data-name="Path 19991" class="cls-1" d="M15.55,19.21c0-.43.35-.79.79-.79.43,0,.79.35.79.79s-.35.79-.79.79h0c-.43,0-.79-.35-.79-.79h0ZM8.52,19.21c0-.43.35-.79.79-.79.43,0,.79.35.79.78h0c0,.44-.35.79-.78.79h0c-.44,0-.79-.35-.79-.79h0ZM17.17,16.54c0-.51.41-.92.92-.92s.92.41.92.92c0,.51-.41.92-.92.92h0c-.51,0-.92-.41-.92-.92h0s0,0,0,0ZM6.63,16.54c0-.51.41-.92.92-.92h0c.51,0,.92.41.92.92h0c0,.51-.41.92-.92.92s-.92-.41-.92-.92h0ZM13.92,16.54c0-.36.29-.66.66-.66h0c.36,0,.66.29.66.65h0c0,.36-.29.66-.65.66h0c-.36,0-.66-.29-.66-.66h0s0,0,0,0ZM10.41,16.54c0-.36.29-.66.65-.66h0c.36,0,.66.29.66.65h0c0,.36-.29.66-.65.66h0c-.36,0-.66-.29-.66-.65h0s0,0,0,0ZM11.41,13.87c0-.78.63-1.42,1.42-1.42h0c.78,0,1.42.63,1.42,1.42,0,.78-.63,1.42-1.42,1.42-.78,0-1.42-.62-1.43-1.41h0s0,0,0,0ZM18.67,13.87c0-.65.53-1.18,1.18-1.18s1.18.53,1.18,1.18c0,.65-.53,1.18-1.18,1.18-.65,0-1.18-.52-1.19-1.18h0s0,0,0,0ZM4.62,13.87c0-.65.53-1.18,1.18-1.18s1.18.53,1.18,1.18c0,.65-.53,1.18-1.18,1.18-.65,0-1.18-.52-1.19-1.18h0s0,0,0,0ZM15.42,13.87c0-.51.41-.92.92-.92.51,0,.92.41.92.92s-.41.92-.92.92h0c-.51,0-.92-.41-.92-.91h0s0,0,0,0ZM8.39,13.87c0-.51.41-.92.92-.92s.92.41.92.92h0c0,.51-.41.92-.92.92h0c-.51,0-.92-.41-.92-.91h0s0,0,0,0ZM13.66,11.2c0-.51.41-.92.92-.92h0c.51,0,.92.41.92.92h0c0,.51-.41.92-.92.92h0c-.51,0-.92-.41-.92-.91h0s0,0,0,0ZM10.15,11.2c0-.51.41-.92.92-.92.51,0,.92.41.92.92h0c0,.51-.41.92-.92.92-.51,0-.92-.41-.92-.91h0s0,0,0,0ZM20.82,11.2c0-.43.35-.79.79-.79h0c.43,0,.79.35.79.79h0c0,.43-.35.79-.79.79h0c-.43,0-.79-.35-.79-.78h0s0,0,0,0ZM3.26,11.2c0-.43.35-.79.79-.79s.79.35.79.79h0c0,.43-.35.79-.79.79h0c-.44,0-.79-.35-.79-.78h0s0,0,0,0ZM17.44,11.2c0-.36.29-.66.66-.66s.66.29.66.66c0,.36-.29.66-.66.66h0c-.36,0-.66-.29-.66-.65h0s0,0,0,0ZM6.9,11.2c0-.36.29-.66.66-.66s.66.29.66.66c0,.36-.29.66-.66.66h0c-.36,0-.66-.29-.66-.65h0s0,0,0,0ZM15.16,8.53c0-.65.53-1.18,1.18-1.18.65,0,1.18.53,1.18,1.18,0,.65-.53,1.18-1.18,1.18-.65,0-1.18-.52-1.19-1.18h0s0,0,0,0ZM8.13,8.53c0-.65.53-1.18,1.18-1.18.65,0,1.18.53,1.18,1.18,0,.65-.53,1.18-1.18,1.18-.65,0-1.18-.52-1.19-1.18h0s0,0,0,0ZM18.93,8.53c0-.51.41-.92.92-.92h0c.51,0,.92.41.92.92s-.41.92-.92.92c-.51,0-.92-.41-.92-.91h0s0,0,0,0ZM11.91,8.53c0-.51.41-.92.92-.92.51,0,.92.41.92.92h0c0,.51-.41.92-.92.92-.51,0-.92-.41-.92-.91h0s0,0,0,0ZM4.88,8.53c0-.51.41-.92.92-.92.51,0,.92.41.92.92h0c0,.51-.41.92-.92.92-.51,0-.92-.41-.92-.92h0s0,0,0,0ZM22.71,8.53c0-.36.29-.66.66-.66s.66.29.66.66h0c0,.36-.29.66-.66.66-.36,0-.66-.29-.66-.65h0s0,0,0,0ZM1.63,8.53c0-.36.29-.66.66-.66h0c.36,0,.66.29.66.66,0,.36-.29.66-.66.66-.36,0-.66-.29-.66-.65h0s0,0,0,0ZM17.18,5.86c0-.51.41-.92.92-.92h0c.51,0,.92.41.92.92h0c0,.51-.41.92-.92.92-.51,0-.92-.41-.92-.91h0s0,0,0,0ZM6.64,5.86c0-.51.41-.92.92-.92h0c.51,0,.92.41.92.92,0,.51-.41.92-.92.92-.51,0-.92-.41-.92-.91h0s0,0,0,0ZM20.82,5.86c0-.43.35-.79.79-.79h0c.43,0,.79.35.79.79h0c0,.44-.35.79-.79.79h0c-.43,0-.79-.35-.79-.78h0s0,0,0,0ZM13.79,5.86c0-.43.35-.79.79-.79h0c.43,0,.79.35.79.79h0c0,.44-.35.79-.79.79h0c-.43,0-.79-.35-.79-.78h0s0,0,0,0ZM10.28,5.86c0-.43.35-.79.79-.79h0c.43,0,.79.35.79.79h0c0,.44-.35.79-.79.79h0c-.43,0-.79-.35-.79-.78h0s0,0,0,0ZM3.26,5.86c0-.44.35-.79.79-.79h0c.43,0,.79.35.79.79h0c0,.44-.35.79-.79.79h0c-.44,0-.79-.35-.79-.78h0s0,0,0,0ZM24.6,5.86c0-.29.24-.52.53-.52.29,0,.52.23.52.52,0,.29-.23.52-.52.52h0c-.29,0-.53-.23-.53-.52h0s0,0,0,0ZM0,5.86c0-.29.24-.52.53-.52.29,0,.52.23.52.52,0,.29-.23.52-.52.52-.29,0-.53-.23-.53-.52h0s0,0,0,0ZM19.06,3.19c0-.43.35-.79.79-.79.44,0,.79.35.79.79h0c0,.44-.35.79-.79.79h0c-.44,0-.79-.35-.79-.78h0s0,0,0,0ZM12.04,3.19c0-.43.35-.79.79-.79.43,0,.79.35.79.79s-.35.79-.79.79c-.44,0-.79-.35-.79-.78h0s0,0,0,0ZM5.01,3.19c0-.43.35-.79.79-.79.43,0,.79.35.79.79s-.35.79-.79.79c-.44,0-.79-.35-.79-.78h0s0,0,0,0ZM22.71,3.19c0-.36.29-.66.66-.66s.66.29.66.66h0c0,.36-.29.66-.65.66h0c-.36,0-.66-.28-.67-.64,0,0,0,0,0-.01h.01ZM1.64,3.19c0-.36.29-.66.66-.66h0c.36,0,.66.29.66.66,0,.36-.29.66-.66.66h0c-.36,0-.66-.28-.67-.64,0,0,0,0,0-.01h.01ZM21.09.52c0-.29.23-.52.52-.52h0c.29,0,.52.23.52.52s-.23.52-.52.52c-.29,0-.53-.23-.53-.52,0,0,0,0,0-.01h0ZM3.52.52c0-.29.23-.52.52-.52h0c.29,0,.52.23.52.52s-.23.52-.52.52c-.29,0-.53-.23-.53-.52,0,0,0,0,0-.01h0Z"/>
  </g>
</svg>